<?xml version="1.0" encoding="UTF-8"?>
<svg width="1422px" height="528px" viewBox="0 0 1422 528" version="1.1" xmlns="http://www.w3.org/2000/svg" xmlns:xlink="http://www.w3.org/1999/xlink">
    <title>logos/kroger/wordmark/original/brandmark-singleColor</title>
    <g id="logos/kroger/wordmark/original/brandmark-singleColor" stroke="none" stroke-width="1" fill="#ffffff" fill-rule="evenodd">
        <g id="Group" transform="translate(471.000000, 0.000000)">
            <g id="logos/kroger/multiColor" transform="translate(0.500000, 0.000000)" >
                <g>
                    <path d="M257.29436,220.843255 L257.29436,196.067019 L212.172536,196.067019 L212.172536,348.419954 L258.363708,348.419954 L258.363708,264.004109 C266.298578,246.370991 279.673173,237.546684 298.487494,237.531189 C303.953622,237.504764 309.407522,238.05005 314.760177,239.158146 L314.760177,195.392994 C310.101895,193.840876 305.20937,193.109497 300.300736,193.231464 C284.632467,193.231464 270.273762,202.458637 257.22462,220.912982" id="Path" fill="#ffffff" fill-rule="nonzero"></path>
                    <path d="M382.826484,298.402636 C370.118881,283.25091 370.118881,261.166335 382.826484,246.014609 C389.110833,239.14481 397.993683,235.232029 407.305248,235.232029 C416.616812,235.232029 425.499662,239.14481 431.784012,246.014609 C444.557247,261.116048 444.557247,283.231471 431.784012,298.332909 C425.488628,305.183194 416.609881,309.082032 407.305248,309.082032 C398.000615,309.082032 389.121868,305.183194 382.826484,298.332909 M485.135164,272.045927 C485.621329,251.095148 477.545732,230.851263 462.771849,215.985625 C432.047424,185.51128 382.475898,185.563199 351.8154,216.101836 C322.059247,247.482988 322.059247,296.65535 351.8154,328.036502 C382.437504,358.613805 432.009105,358.728028 462.771849,328.292167 C477.696224,313.122726 485.150662,294.37398 485.135164,272.045927 Z" id="Shape" fill="#ffffff" fill-rule="nonzero"></path>
                    <path d="M723.483472,257.658976 C725.189101,250.102874 729.202282,243.263901 734.967337,238.089003 C740.194706,233.519302 746.923611,231.036785 753.866896,231.116329 C760.887622,231.179918 767.588484,234.060738 772.464247,239.111662 C777.76082,243.976721 781.25862,250.487776 782.390584,257.589249 L723.483472,257.658976 Z M754.82001,193.231464 C734.298796,192.79944 714.523385,200.925345 700.236783,215.660234 C685.374399,230.597252 677.950956,249.415725 677.966406,272.115654 C677.966406,295.357902 685.079941,314.331323 699.306915,329.035919 C713.533889,343.740514 732.131241,351.100559 755.09897,351.116054 C770.596763,351.116054 783.839627,348.226268 794.827563,342.446696 C806.242694,336.304283 816.475319,328.182705 825.048259,318.460696 L791.549779,299.727444 C783.025993,307.567829 771.836587,311.488022 757.98156,311.488022 C738.051398,311.488022 726.342815,302.663715 722.855812,285.015101 L827.675135,285.015101 C827.699545,283.779045 828.256302,278.298092 828.349289,276.996526 C828.442276,275.69496 828.488769,274.672301 828.488769,273.672884 C828.488769,251.360326 821.6,232.363662 807.822462,216.682893 C794.044924,201.002123 776.346444,193.169485 754.727023,193.184934" id="Shape" fill="#ffffff" fill-rule="nonzero"></path>
                    <path d="M936.167435,193.231464 C920.499166,193.231464 906.132712,202.458637 893.068073,220.912982 L893.068073,196.067019 L847.946248,196.067019 L847.946248,348.419954 L894.160667,348.419954 L894.160667,264.004109 C902.064541,246.370991 915.431388,237.546684 934.261206,237.531189 C939.727391,237.503572 945.181416,238.04887 950.533889,239.158146 L950.533889,195.392994 C945.883202,193.842621 940.998614,193.111253 936.097695,193.231464" id="Path" fill="#ffffff" fill-rule="nonzero"></path>
                    <path d="M167.631878,167.386085 C168.338035,162.145042 168.749373,156.868499 168.863953,151.581356 C168.051898,112.435059 188.475641,75.9098804 222.254938,56.0986 C256.034235,36.2873197 297.887884,36.2873197 331.667181,56.0986 C365.446478,75.9098804 385.870221,112.435059 385.058166,151.581356 L428.715449,151.581356 C428.687353,68.3649068 361.585212,0.720035565 278.355921,0.00570280768 C195.126631,-0.708629949 126.872868,65.774521 125.41589,148.978225 C125.38292,153.269569 125.080116,157.554596 124.509269,161.807945 C122.510054,177.287282 116.721628,199.59984 100.541932,218.007701 C87.8724865,232.417894 70.5304561,242.156396 48.8180481,247.223206 L48.8180481,145.956732 L-5.68434189e-14,145.956732 L-5.68434189e-14,348.419954 L48.8180481,348.419954 L48.8180481,291.685626 C63.1806496,289.277406 77.1534858,284.94642 90.3598823,278.809421 L134.528592,348.419954 L193.017263,348.419954 L128.36822,251.871656 C129.995488,250.198214 131.622756,248.50153 133.180284,246.735119 C156.636194,220.053019 164.865522,188.83868 167.631878,167.3396" id="Path" fill="#ffffff" fill-rule="nonzero"></path>
                    <path d="M605.343796,295.776262 C598.877516,302.403887 590.009197,306.141224 580.748798,306.141224 C571.4884,306.141224 562.620081,302.403887 556.153801,295.776262 C543.479863,280.937327 543.479863,259.087134 556.153801,244.248199 C562.604802,237.618677 571.462833,233.878762 580.713928,233.878762 C589.965024,233.878762 598.823055,237.618677 605.274056,244.248199 C617.812989,259.136659 617.812989,280.887802 605.274056,295.776262 M658.392742,392.9521 L658.392742,196.067019 L614.456498,196.067019 L614.456498,209.036193 C604.131852,198.516177 589.881115,192.786638 575.146346,193.231464 C555.588131,193.231464 538.656793,200.583762 524.35233,215.288358 C510.047867,229.992953 502.887886,248.214876 502.872388,269.954125 C502.872388,291.646889 510.210593,309.682874 524.887003,324.062078 C539.563413,338.441282 556.316528,345.654126 575.146346,345.700611 C589.44988,345.930949 603.43848,341.492008 614.991172,333.056828 L614.991172,392.9521 C614.991174,426.166723 597.267998,456.8583 568.497794,473.465612 C539.72759,490.072924 504.281237,490.072924 475.511034,473.465612 C446.74083,456.8583 429.017654,426.166723 429.017656,392.9521 L385.546346,392.9521 C386.310121,466.974097 445.96535,526.887408 519.997297,527.984715 C594.029245,529.082023 655.434626,470.963082 658.392742,396.996252 L658.392742,394.927691 C658.392742,394.276909 658.392742,393.626126 658.392742,392.9521 Z" id="Shape" fill="#ffffff" fill-rule="nonzero"></path>
                    <g id="utility/registeredTrademarkSansSerif" transform="translate(658.183251, 447.645522)">
                        <g>
                            <path d="M16.5,0 C25.6126984,0 33,7.38730163 33,16.5 C33,25.6126984 25.6126984,33 16.5,33 C7.38730163,33 0,25.6126984 0,16.5 C0,7.38730163 7.38730163,0 16.5,0 Z M16.5,3.3 C9.2098413,3.3 3.3,9.2098413 3.3,16.5 C3.3,23.7901587 9.2098413,29.7 16.5,29.7 C23.7901587,29.7 29.7,23.7901587 29.7,16.5 C29.7,9.2098413 23.7901587,3.3 16.5,3.3 Z" id="Oval" fill="#ffffff" fill-rule="nonzero"></path>
                            <path d="M22.1786325,8.41827643 C23.3172762,9.42048706 23.9092817,10.8897655 23.7769231,12.3850202 C23.8946862,13.7263361 23.37415,15.0457779 22.3666667,15.9597021 C21.3638578,16.7307848 20.1564569,17.2030661 18.8880342,17.3203875 L24.2,25.3 L21.4029915,25.3 L16.3495726,17.5279497 L13.0589744,17.5279497 L13.0589744,25.3 L10.45,25.3 L10.4735043,7.17290338 L17.2662393,7.17290338 C18.9992107,7.04130832 20.7275238,7.47946431 22.1786325,8.41827643 Z M18.7290342,9.35 L13.2,9.35 L13.2,15.4 L18.2762254,15.4 L18.2762254,15.4 C18.8423008,15.3876901 19.4007185,15.261905 19.9206364,15.0295918 C20.3784773,14.8440011 20.7697209,14.5162373 21.0407425,14.0912245 C21.3360824,13.5415234 21.4764625,12.9169153 21.4458872,12.2885714 C21.471698,11.7296317 21.3479877,11.1741677 21.0884065,10.6834694 C20.8519321,10.2899116 20.5133128,9.9732775 20.1112927,9.76979592 C19.6782505,9.54593337 19.210188,9.40378142 18.7290342,9.35 Z" id="Combined-Shape" fill="#ffffff"></path>
                        </g>
                    </g>
                </g>
            </g>
        </g>
        <g id="Group" transform="translate(0.391847, 43.373445)" fill="#ffffff" fill-rule="nonzero">
            <g id="Combined-Shape">
                <path d="M339.087127,255.920296 C353.394049,255.920296 364.911707,267.583101 364.911707,282.070039 C364.911707,296.556978 353.394049,308.219783 339.087127,308.219783 C324.780346,308.219783 313.262547,296.556978 313.262547,282.070039 C313.262547,267.583101 324.780346,255.920296 339.087127,255.920296 Z M125.087127,255.920296 C139.394049,255.920296 150.911707,267.583101 150.911707,282.070039 C150.911707,296.556978 139.394049,308.219783 125.087127,308.219783 C110.780346,308.219783 99.2625468,296.556978 99.2625468,282.070039 C99.2625468,267.583101 110.780346,255.920296 125.087127,255.920296 Z M0,0.438102915 C58.9646363,3.36415159 99.1182509,43.9357732 104.807908,106.360696 C111.078296,175.49726 171.691856,226.519339 239.806436,220.156108 C301.13992,214.419959 348.097877,164.07117 352.231738,103.689931 L352.231738,103.689931 L395.125573,103.620334 C390.945361,186.180038 327.359261,255.479042 243.754468,263.282122 C238.552415,263.762166 233.404556,264.002189 228.31089,264.002189 C143.080279,264.002189 70.1351598,197.977501 62.169498,110.355079 C58.5002786,70.0622709 36.4379028,46.6065386 0,43.9357732 L0,43.9357732 Z M230.935163,109.679238 C233.055531,109.679238 235.010058,110.826241 236.044231,112.677435 L276.430025,183.555765 C277.232304,184.966131 277.433298,186.640144 276.987368,188.200476 C276.513088,189.774274 275.413144,191.084143 273.945088,191.823345 C262.461449,197.593655 250.001468,201.169464 237.205409,202.366787 C220.010001,203.98892 202.683336,201.241046 186.833658,194.378021 C185.266096,193.710542 184.063671,192.398122 183.535811,190.778256 C183.00455,189.156406 183.18159,187.385866 184.023415,185.901367 L225.825811,112.677435 C226.859985,110.826241 228.814653,109.679238 230.935163,109.679238 Z M199.792299,103.713177 C201.912242,103.713177 203.866768,104.858763 204.901509,106.708965 C205.948865,108.560584 205.948865,110.825816 204.901509,112.677435 L168.835404,175.984864 C167.972458,177.516564 166.469107,178.581639 164.737972,178.887241 C163.006694,179.193128 161.229633,178.707508 159.894251,177.564049 C140.726173,161.076375 128.089719,138.274655 124.269257,113.28127 C124.176414,112.584592 124.060325,111.539503 123.920847,110.378326 C123.722829,108.696092 124.246011,107.008756 125.360838,105.733615 C126.469995,104.453371 128.079372,103.716296 129.773228,103.713177 L199.792299,103.713177 Z M325.524651,103.689931 C327.225311,103.692482 328.842059,104.428991 329.960287,105.710369 C331.060089,106.994014 331.581003,108.674547 331.400278,110.355079 C328.898757,130.265478 320.806233,149.05949 308.060493,164.558916 C305.504542,167.681707 302.767156,170.651838 299.862511,173.453576 C298.592331,174.73467 296.798686,175.35268 295.008868,175.125604 C293.208277,174.864509 291.630226,173.783843 290.735813,172.199414 L256.806094,112.654189 C255.740027,110.807531 255.740027,108.532518 256.806094,106.68586 C257.840835,104.835517 259.795361,103.689931 261.915304,103.689931 L325.524651,103.689931 Z"></path>
            </g>
        </g>
    </g>
</svg>