<svg width="231" height="80" viewBox="0 0 231 80" fill="none" xmlns="http://www.w3.org/2000/svg">
<g clip-path="url(#clip0_307_8144)">
<path fill-rule="evenodd" clip-rule="evenodd" fill="#000" d="M14.5673 38.1276C12.2575 43.3146 10.6061 48.4254 11.2254 51.5752C11.5824 54.2021 13.3008 55.9845 17.7288 55.1901C21.5153 54.3026 27.4032 50.8049 29.4135 48.8775C29.421 51.0282 30.0496 52.9724 31.4853 54.2561C33.1516 55.5659 35.374 55.7482 37.8586 55.1956C51.5741 52.1426 66.2158 36.4253 70.0487 21.2326C71.5067 15.4521 71.8527 6.44 66.6826 2.11997C63.2272 -0.771208 58.1297 -0.949814 53.7426 3.11533C53.7351 3.12463 53.7277 3.13207 53.7184 3.14137C54.6129 2.97951 56.3927 2.8716 58.1129 4.04184C60.0434 5.35348 61.2819 7.85954 61.8008 11.5061C62.6098 22.7489 56.8651 35.4244 49.3629 42.8812C47.148 45.0058 45.1097 46.4216 43.7446 47.0598C42.0337 47.8561 40.8862 47.7203 40.2167 47.0337C38.5448 45.3165 39.9973 41.9025 40.8472 40.2914C41.5371 38.9816 53.3316 16.5963 53.3316 16.5963H44.8493C44.8493 16.5963 35.3851 34.215 32.2812 39.9918C31.3272 41.5044 29.8896 42.8458 26.689 45.3016C25.7964 46.0328 24.9985 46.5779 24.2974 46.9537C20.816 48.6765 20.8588 46.1128 21.7328 43.1881C23.0142 38.9072 31.2993 22.8085 34.6357 17.8689C35.0709 17.0633 35.3219 16.5963 35.3219 16.5963H26.7709C26.7709 16.5963 26.7671 16.6056 26.7448 16.6447C25.6848 18.1405 24.6787 19.6252 23.7228 21.1043C23.5479 21.402 23.3211 21.7815 23.0514 22.2336C21.7663 24.3955 20.3287 26.7731 18.1398 29.0355C12.8229 34.5258 7.43521 35.7183 0.0185973 36.0793C0.0111584 36.0793 0.0055792 36.0793 0 36.0811C0.083688 36.1741 0.195272 36.2913 0.342191 36.4216C3.42749 39.2346 10.8664 39.3853 14.0875 38.2914C14.0875 38.2914 14.2921 38.2225 14.5673 38.1276ZM167.958 34.6635C168.149 34.6281 168.339 34.6058 168.529 34.6002C169.838 34.509 170.654 35.8225 170.53 37.0058C170.53 37.0132 170.532 37.0207 170.533 37.0281C170.533 37.0281 169.312 39.3091 168.263 41.27C168.227 41.3314 168.194 41.3928 168.162 41.4561C166.615 44.3584 164.765 46.4124 162.144 47.9026C161.871 48.0886 161.467 48.2766 161.041 48.3752C159.488 48.5538 158.722 47.5807 158.99 46.0161C159.762 41.5156 164.977 34.8774 167.958 34.6635ZM177.184 44.801L173.68 47.3015C173.301 44.8177 181.567 30.7377 181.567 30.7377H173.771C173.771 30.7377 173.167 31.9153 173.169 31.813C173.171 31.7442 170.141 29.1581 164.731 31.5712C163.346 31.9712 161.205 33.2828 159.022 35.1693C152.278 40.9982 155.784 38.6652 149.087 43.8038C147.285 45.1861 145.831 46.2689 145.831 46.2689C146.746 44.3284 147.568 42.6317 148.28 41.1749C148.315 41.1024 148.353 41.0298 148.39 40.9573C149.984 37.7442 151.358 34.4456 151.185 32.4958C150.846 30.2465 148.486 28.3804 138.232 34.6C138.124 34.6633 137.269 35.2642 136.543 35.7703C136.962 34.4958 137.192 33.3628 137.114 32.4958C136.776 30.2465 134.416 28.3804 124.161 34.6C124.089 34.6428 123.665 34.9386 123.172 35.2828L125.569 30.8139C125.599 30.7488 125.601 30.7488 125.601 30.7488H117.925L105.726 53.5155H113.39C113.39 53.5155 113.414 53.4671 113.46 53.3797L120.683 39.9191C122.182 38.7489 123.311 37.9935 124.911 36.9554C126.186 36.1628 127.362 35.6437 127.853 35.9861C128.081 36.1442 128.163 36.6651 128.104 36.8865C127.922 37.5638 127.306 38.7935 127.126 39.1359C126.941 39.4838 119.536 53.5155 119.536 53.5155H127.678C127.678 53.5155 127.702 53.4615 127.749 53.3611C127.749 53.3611 130.469 48.2652 132.524 44.4159C133.292 42.9815 134.122 41.3963 134.866 39.8335C136.309 38.7117 137.421 37.9675 138.981 36.9554C140.257 36.1628 141.432 35.6437 141.923 35.9861C142.152 36.1442 142.234 36.6651 142.174 36.8865C141.992 37.5638 141.377 38.7935 141.196 39.1359C141.159 39.2066 140.845 39.8 139.707 41.9619H139.71C138.461 44.2801 136.932 47.2029 136.078 49.4689C135.329 51.4615 135.267 53.9266 137.839 54.1462C140.331 54.3025 143.593 51.9024 144.858 50.9424C146.508 49.6885 149.935 46.6094 151.702 45.0764C150.869 47.3796 150.634 49.7666 151.384 52.0587C151.447 52.2392 151.518 52.4159 151.6 52.5834C153.201 55.8411 157.506 55.0857 160.655 53.2327C162.821 51.9378 164.692 50.1499 164.692 50.1499C164.692 50.1499 164.436 54.522 167.913 54.5648C170.824 54.5964 177.759 48.7713 180.061 46.7657L176.444 53.5155H184.108C184.108 53.5155 184.132 53.4671 184.178 53.3797L191.402 39.9191C192.901 38.7489 194.028 37.9935 195.629 36.9554C196.905 36.1628 198.078 35.6437 198.571 35.9861C198.798 36.1442 198.881 36.6651 198.822 36.8865C198.64 37.5638 198.022 38.7935 197.842 39.1359C197.805 39.2103 197.455 39.8689 196.269 42.1182H196.256C195.023 44.4103 193.542 47.2531 192.709 49.4689C192.01 51.3257 191.909 53.5955 193.985 54.0718C196.925 54.7732 200.717 52.1648 202.832 50.375C204.035 49.4987 204.965 48.7582 205.543 48.282C205.701 49.3964 206.147 50.4717 206.8 51.4317C210.512 56.8978 218.905 55.2941 221.938 53.9862C226.463 52.0364 230.577 47.3927 223.876 36.9944C223.073 35.7498 222.653 34.4995 223.093 33.5377C223.478 32.6986 224.226 31.8521 225.851 32.1126C227.391 32.4437 226.675 35.5061 225.848 36.8326C229.697 36.827 232.187 34.9163 230.421 31.9358C229.775 30.8437 225.505 27.8242 220.393 32.2428C217.628 34.6335 216.754 39.3684 218.792 44.4066C219.573 46.3415 219.88 47.7815 219.876 48.8531C219.872 50.8885 218.587 52.0159 216.586 52.0159C213.657 52.0159 211.457 49.1713 211.913 46.3229C212.208 44.468 213.477 42.3861 216.149 40.4661C213.207 39.7145 210.923 40.2484 209.209 41.3666C207.63 42.388 206.611 43.5712 206.043 44.8084C205.556 45.188 204.989 45.6289 204.316 46.1443C202.515 47.5266 201.061 48.6094 201.061 48.6094C201.634 47.3945 203.57 43.9359 204.066 42.9126C205.035 40.907 208.675 34.4884 207.715 31.9898C207.087 30.0084 204.345 28.8567 194.877 34.6C194.807 34.6428 194.381 34.9386 193.89 35.2828L196.285 30.8139C196.317 30.7488 196.317 30.7488 196.317 30.7488H188.644C188.644 30.7488 187.959 32.0251 186.723 34.3321C184.707 37.8447 184.307 39.7163 177.184 44.801ZM100.271 34.6634C100.463 34.6281 100.652 34.6058 100.842 34.6002C102.15 34.509 103.288 35.8225 103.161 37.0058C103.163 37.0132 103.165 37.0206 103.165 37.0281C103.165 37.0281 101.945 39.309 100.894 41.27C100.861 41.3314 100.827 41.3928 100.796 41.456C99.2484 44.3584 97.398 46.4123 94.7757 47.9026C94.5061 48.0868 94.0114 48.2709 93.5074 48.3696C91.8113 48.5537 90.9763 47.3035 91.4171 45.4654C92.4901 40.9965 97.4091 34.8699 100.271 34.6634ZM68.8789 42.0272C68.8789 42.0272 68.8789 42.0253 68.892 41.99C69.3699 39.7797 70.324 37.4616 72.8811 35.722C75.5275 33.9211 76.9837 34.4625 77.4542 35.4727C78.2762 37.2365 75.5554 39.216 74.3912 39.9695C72.3529 41.2886 70.3072 41.8337 69.342 41.9211L68.8789 42.0272ZM105.536 32.5982C105.528 32.5889 105.521 32.5815 105.513 32.574C105.305 32.3303 105.099 32.1108 104.896 31.9154C103.436 30.5033 101.26 30.2094 99.3726 30.5275C95.7034 31.0652 92.4153 33.6141 90.0721 35.9155C88.3184 37.6345 86.2987 39.9378 85.0434 41.2997C84.6547 41.6755 84.253 42.0606 83.8475 42.4439C81.7888 44.3955 75.2965 48.9444 71.272 48.6709C69.8586 48.5741 68.8376 47.9397 68.5252 46.5834C68.5233 46.576 68.5215 46.5667 68.5196 46.5574C68.5457 46.5555 68.5717 46.5555 68.5977 46.5555C69.7917 46.5202 72.1349 45.9639 74.0003 45.2123C77.2102 44.0867 81.004 42.1406 83.3027 38.8662C83.9666 37.9229 84.504 36.8699 84.8685 35.6941C85.4878 33.6959 85.6441 30.1647 80.1988 30.3173C77.2994 30.3991 74.3908 31.3573 71.7147 32.8773C67.1434 35.2978 62.5517 40.0978 61.0881 45.0932C59.9277 49.0541 60.4019 53.577 65.6798 54.6039C66.4349 54.7528 67.2215 54.7956 67.9933 54.7565C73.1987 54.4849 79.838 49.9881 83.8141 46.1146C83.2097 48.4327 83.2431 50.7416 84.3776 52.6784C84.7904 53.3816 85.3818 53.9732 86.1927 54.4049C88.7684 55.6365 92.3279 54.1072 94.5429 52.3044C94.7958 52.0979 95.0506 51.8951 95.311 51.7016C95.311 51.7016 92.977 56.0626 91.6417 58.5575C89.371 62.8012 84.5561 70.5966 78.3799 72.9817C74.2625 74.5706 70.8443 72.6617 71.326 68.5184C71.4357 67.4115 71.6942 66.4887 71.7686 66.2096C71.7686 66.2096 71.7277 66.2338 71.6533 66.2803C68.899 67.9864 67.4484 71.2794 67.8706 73.7259C68.1031 76.1743 69.5295 78.8701 73.9798 79.8432C85.8077 81.7074 95.071 66.4645 98.7236 59.6551C100.159 56.9779 114.258 30.6912 114.258 30.6912C111.156 30.6912 106.966 30.6987 106.551 30.6987L105.536 32.5982Z"/>
</g>
<defs>
<clipPath id="clip0_307_8144">
<rect width="231" height="80" fill="white"/>
</clipPath>
</defs>
</svg>
